<svg width="80" height="81" viewBox="0 0 80 81" fill="none" xmlns="http://www.w3.org/2000/svg">
<path opacity="0.4" d="M77.5 69.6094C77.8315 69.6094 78.1495 69.476 78.3839 69.2387C78.6183 69.0013 78.75 68.6794 78.75 68.3438V20.25C78.747 19.2439 78.351 18.2799 77.6484 17.5685C76.9457 16.8571 75.9936 16.4561 75 16.4531H38.75V67.0781H36.25V16.4531H35C32.6802 16.4558 30.4561 17.3901 28.8157 19.0509C27.1754 20.7118 26.2526 22.9637 26.25 25.3125V73.4062C26.247 73.8314 26.2889 74.2557 26.375 74.6719C26.6632 76.1012 27.4302 77.3859 28.5464 78.3084C29.6625 79.2309 31.0592 79.7347 32.5 79.7344H77.5C77.8315 79.7344 78.1495 79.601 78.3839 79.3637C78.6183 79.1263 78.75 78.8044 78.75 78.4688C78.75 78.1331 78.6183 77.8112 78.3839 77.5738C78.1495 77.3365 77.8315 77.2031 77.5 77.2031C76.5054 77.2031 75.5516 76.8031 74.8483 76.091C74.1451 75.379 73.75 74.4132 73.75 73.4062C73.75 72.3993 74.1451 71.4335 74.8483 70.7215C75.5516 70.0094 76.5054 69.6094 77.5 69.6094ZM47.5 30.375H67.5C67.8315 30.375 68.1495 30.5083 68.3839 30.7457C68.6183 30.983 68.75 31.305 68.75 31.6406C68.75 31.9763 68.6183 32.2982 68.3839 32.5356C68.1495 32.7729 67.8315 32.9062 67.5 32.9062H47.5C47.1685 32.9062 46.8505 32.7729 46.6161 32.5356C46.3817 32.2982 46.25 31.9763 46.25 31.6406C46.25 31.305 46.3817 30.983 46.6161 30.7457C46.8505 30.5083 47.1685 30.375 47.5 30.375ZM47.5 41.7656H67.5C67.8315 41.7656 68.1495 41.899 68.3839 42.1363C68.6183 42.3737 68.75 42.6956 68.75 43.0312C68.75 43.3669 68.6183 43.6888 68.3839 43.9262C68.1495 44.1635 67.8315 44.2969 67.5 44.2969H47.5C47.1685 44.2969 46.8505 44.1635 46.6161 43.9262C46.3817 43.6888 46.25 43.3669 46.25 43.0312C46.25 42.6956 46.3817 42.3737 46.6161 42.1363C46.8505 41.899 47.1685 41.7656 47.5 41.7656ZM72.5 77.2031H32.5C31.7263 77.2009 30.9722 76.9565 30.3412 76.5033C29.7101 76.0501 29.2329 75.4104 28.975 74.6719C28.8236 74.2676 28.7473 73.8386 28.75 73.4062C28.753 72.4002 29.149 71.4362 29.8516 70.7248C30.5542 70.0134 31.5063 69.6124 32.5 69.6094H72.5C71.6886 70.7048 71.25 72.037 71.25 73.4062C71.25 74.7755 71.6886 76.1077 72.5 77.2031Z" fill="#FD6727"/>
<path d="M5 21.5156C5 25.5207 6.17298 29.4358 8.37061 32.7659C10.5682 36.096 13.6918 38.6915 17.3463 40.2242C21.0009 41.7569 25.0222 42.1579 28.9018 41.3765C32.7814 40.5952 36.3451 38.6665 39.1421 35.8345C41.9392 33.0025 43.844 29.3943 44.6157 25.4662C45.3874 21.5381 44.9913 17.4665 43.4776 13.7663C41.9638 10.0661 39.4004 6.90346 36.1114 4.67836C32.8224 2.45327 28.9556 1.26562 25 1.26562C19.6976 1.27199 14.6142 3.40751 10.8648 7.20374C7.11544 11 5.00629 16.1469 5 21.5156ZM25 39.2344C20.3602 39.2293 15.9119 37.3609 12.6311 34.0391C9.3503 30.7173 7.50496 26.2134 7.5 21.5156C7.5 21.0246 7.53375 20.5411 7.5725 20.0589C11.4311 19.446 15.1231 18.0332 18.4175 15.9089C18.2658 16.7769 18.0015 17.6208 17.6312 18.4186C17.5302 18.6236 17.4859 18.8524 17.5032 19.0808C17.5205 19.3092 17.5987 19.5286 17.7294 19.7155C17.8602 19.9024 18.0386 20.0499 18.2456 20.1423C18.4526 20.2346 18.6805 20.2684 18.905 20.2399C19.2412 20.1981 25.4225 19.3805 29.5025 16.4341C29.1617 17.9885 28.5551 19.4705 27.71 20.8132C27.5711 21.0234 27.4976 21.2709 27.499 21.5238C27.5003 21.7766 27.5765 22.0233 27.7176 22.232C27.8587 22.4406 28.0583 22.6017 28.2907 22.6944C28.523 22.7871 28.7775 22.8072 29.0212 22.7521C30.0587 22.518 38.1038 20.6272 42.0213 17.477C42.634 20.0765 42.6561 22.7828 42.0857 25.3921C41.5154 28.0014 40.3675 30.4456 38.7286 32.5405C37.0897 34.6354 35.0026 36.3263 32.6245 37.4858C30.2465 38.6454 27.6394 39.2432 25 39.2344ZM25 3.79687C28.4759 3.80147 31.8719 4.85281 34.756 6.81714C37.6401 8.78148 39.8819 11.57 41.1963 14.8281C39.4863 16.8315 34.615 18.587 31.1375 19.5893C31.9803 17.3743 32.4412 15.0292 32.5 12.6562C32.5003 12.3709 32.4053 12.0938 32.2305 11.87C32.0557 11.6462 31.8113 11.4888 31.537 11.4232C31.2627 11.3577 30.9746 11.388 30.7194 11.5091C30.4642 11.6302 30.257 11.8351 30.1312 12.0905C28.6962 15.0015 23.8687 16.6468 20.6525 17.358C21.0266 15.8187 21.227 14.2413 21.25 12.6562C21.25 12.3906 21.1675 12.1317 21.0141 11.9162C20.8607 11.7007 20.6442 11.5396 20.3953 11.4556C20.1464 11.3716 19.8777 11.369 19.6273 11.4482C19.3769 11.5274 19.1574 11.6844 19 11.8969C16.5125 15.2558 10.8587 16.805 8 17.396C8.9166 13.5272 11.0913 10.0828 14.1746 7.61632C17.2578 5.14987 21.0706 3.80465 25 3.79687Z" fill="#161D27"/>
<path d="M46.1863 48.8529L35.625 45.2838C34.6957 44.9656 33.68 45.0313 32.7982 45.4665C31.9164 45.9018 31.2398 46.6716 30.915 47.6088C30.4943 48.8594 29.6976 49.9453 28.6366 50.7142C27.5756 51.4832 26.3036 51.8967 24.9988 51.8967C23.6939 51.8967 22.4219 51.4832 21.3609 50.7142C20.2999 49.9453 19.5032 48.8594 19.0825 47.6088C18.7577 46.6722 18.0814 45.9028 17.2002 45.4676C16.3191 45.0324 15.304 44.9664 14.375 45.2838L3.81375 48.8529C3.06818 49.1046 2.41956 49.5872 1.95952 50.2324C1.49949 50.8776 1.2513 51.6528 1.25 52.4486V60.7498C1.25 61.7568 1.64509 62.7225 2.34835 63.4346C3.05161 64.1466 4.00544 64.5467 5 64.5467H45C45.9946 64.5467 46.9484 64.1466 47.6516 63.4346C48.3549 62.7225 48.75 61.7568 48.75 60.7498V52.4486C48.7487 51.6528 48.5005 50.8776 48.0405 50.2324C47.5804 49.5872 46.9318 49.1046 46.1863 48.8529ZM46.25 60.7498C46.25 61.0855 46.1183 61.4074 45.8839 61.6447C45.6495 61.8821 45.3315 62.0154 45 62.0154H5C4.66848 62.0154 4.35054 61.8821 4.11612 61.6447C3.8817 61.4074 3.75 61.0855 3.75 60.7498V52.4486C3.74994 52.1828 3.83249 51.9238 3.98595 51.7082C4.13941 51.4926 4.35599 51.3314 4.605 51.2475L15.165 47.6847C15.4684 47.5767 15.8017 47.5941 16.0925 47.7332C16.3834 47.8723 16.6084 48.1218 16.7188 48.4277C17.3084 50.1774 18.4238 51.6965 19.9089 52.7722C21.3939 53.8479 23.1741 54.4262 25 54.4262C26.8259 54.4262 28.6061 53.8479 30.0911 52.7722C31.5762 51.6965 32.6916 50.1774 33.2812 48.4277C33.3927 48.1226 33.6178 47.8739 33.9083 47.735C34.1988 47.5961 34.5315 47.5781 34.835 47.6847L45.395 51.2475C45.644 51.3314 45.8606 51.4926 46.0141 51.7082C46.1675 51.9238 46.2501 52.1828 46.25 52.4486V60.7498Z" fill="#161D27"/>
</svg>
