<svg width="80" height="80" viewBox="0 0 80 80" fill="none" xmlns="http://www.w3.org/2000/svg">
<g opacity="0.4">
<path d="M38.25 31.8756L38.25 31.875L38.25 28.0775V27.6075L38.7192 27.5785C40.0049 27.499 42.1383 27.2834 44.3906 26.6877C46.6492 26.0904 48.9845 25.1219 50.7113 23.5638L51.1537 23.1646L51.47 23.6696C52.6087 25.4881 54.3564 26.8428 56.4013 27.4922L56.75 27.6029V27.9688V31.8746V31.875H56.25L38.25 31.8756ZM38.25 31.8756C38.2523 33.6947 38.7908 35.4727 39.7983 36.9872C40.8058 38.5018 42.2375 39.6856 43.9143 40.3908C45.5911 41.0959 47.4386 41.291 49.2257 40.9516C50.9453 40.6251 52.5355 39.8176 53.8128 38.625L38.25 31.8756ZM36.75 31.875V31.375H36.696C36.6972 31.2358 36.6992 31.0561 36.7017 30.8246L36.7031 30.6972C36.7187 29.2592 36.75 26.1324 36.75 19.375C36.75 18.513 37.0924 17.6864 37.7019 17.0769C38.3114 16.4674 39.138 16.125 40 16.125H55C55.862 16.125 56.6886 16.4674 57.2981 17.0769C57.8607 17.6395 58.1957 18.3872 58.244 19.1768C58.2289 19.2132 58.2214 19.2424 58.2178 19.257C58.2026 19.3194 58.1994 19.3808 58.1979 19.4118C58.1917 19.5386 58.1947 19.817 58.201 20.3916C58.2017 20.4526 58.2024 20.5169 58.2032 20.5848C58.2188 22.0261 58.25 25.1493 58.25 31.875C58.25 34.7261 57.1174 37.4604 55.1014 39.4764C53.0854 41.4924 50.3511 42.625 47.5 42.625C44.6489 42.625 41.9146 41.4924 39.8986 39.4764C37.8826 37.4604 36.75 34.7261 36.75 31.875ZM36.5129 32.2949C36.5116 32.2959 36.5079 32.2985 36.5021 32.3023C36.5108 32.2963 36.5234 32.2876 36.5234 32.2876L36.5134 32.2945L36.5129 32.2949ZM36.6975 31.8087C36.6974 31.8088 36.6973 31.8073 36.697 31.8038C36.6974 31.8069 36.6975 31.8086 36.6975 31.8087Z" fill="#FD6727" stroke="black"/>
<path d="M61.8882 38.625H75C75.862 38.625 76.6886 38.9674 77.2981 39.5769C77.9076 40.1864 78.25 41.013 78.25 41.875V74.375C78.25 75.2369 77.9076 76.0636 77.2981 76.6731C76.6886 77.2826 75.8619 77.625 75 77.625H20C19.138 77.625 18.3114 77.2826 17.7019 76.6731C17.0924 76.0636 16.75 75.237 16.75 74.375V41.875C16.75 41.013 17.0924 40.1864 17.7019 39.5769C18.3114 38.9674 19.138 38.625 20 38.625H33.1129C30.2907 40.7177 27.9485 43.3996 26.2533 46.4916C24.2982 50.0578 23.2657 54.0562 23.25 58.1231V58.125L23.25 68.125L23.25 68.1256C23.2521 69.915 23.9639 71.6305 25.2292 72.8958C26.4945 74.1611 28.21 74.8729 29.9994 74.875H30H65H65.0006C66.79 74.8729 68.5055 74.1611 69.7708 72.8958C71.0361 71.6305 71.7479 69.915 71.75 68.1256V68.125L71.75 58.125L71.75 58.1231C71.7345 54.0563 70.7023 50.0579 68.7474 46.4918C67.0524 43.3998 64.7104 40.7178 61.8882 38.625Z" fill="#FD6727" stroke="black"/>
<path d="M53.9373 44.5816C55.7908 43.6396 57.4131 42.3029 58.691 40.6676C61.5463 42.5081 63.9111 45.0195 65.5771 47.9853C67.317 51.0827 68.237 54.5731 68.25 58.1258C68.25 58.1261 68.25 58.1265 68.25 58.1268V68.1235C68.25 68.1239 68.25 68.1243 68.25 68.1247C68.2471 68.9858 67.9038 69.8109 67.2948 70.4198C66.6857 71.0289 65.8605 71.3723 64.9991 71.375C64.9989 71.375 64.9987 71.375 64.9985 71.375H30.0015C30.0013 71.375 30.0011 71.375 30.0009 71.375C29.1395 71.3723 28.3143 71.0289 27.7052 70.4198C27.0961 69.8108 26.7528 68.9855 26.75 68.1242V58.126C26.7641 54.5722 27.686 51.0809 29.4281 47.9834C31.0962 45.0173 33.4635 42.5064 36.3213 40.6674C37.5993 42.3027 39.2216 43.6396 41.0752 44.5816C43.0677 45.5942 45.2712 46.122 47.5063 46.122C49.7413 46.122 51.9448 45.5942 53.9373 44.5816Z" fill="#FD6727" stroke="black"/>
</g>
<path d="M11.3475 29.375H51.1587C52.1501 29.37 53.0991 28.9728 53.7983 28.27C54.4975 27.5673 54.89 26.6163 54.89 25.625V5.625C54.89 4.63368 54.4975 3.68268 53.7983 2.97996C53.0991 2.27723 52.1501 1.87996 51.1587 1.875H11.3475C10.356 1.87963 9.40663 2.27676 8.70715 2.97952C8.00767 3.68228 7.61499 4.63346 7.615 5.625V25.625C7.61499 26.6165 8.00767 27.5677 8.70715 28.2705C9.40663 28.9732 10.356 29.3704 11.3475 29.375ZM10.1037 5.625C10.1037 5.29456 10.2346 4.97756 10.4677 4.74332C10.7007 4.50908 11.0171 4.37665 11.3475 4.375H51.1587C51.4892 4.37665 51.8055 4.50908 52.0386 4.74332C52.2717 4.97756 52.4025 5.29456 52.4025 5.625V25.625C52.4025 25.9554 52.2717 26.2724 52.0386 26.5067C51.8055 26.7409 51.4892 26.8733 51.1587 26.875H11.3475C11.0171 26.8733 10.7007 26.7409 10.4677 26.5067C10.2346 26.2724 10.1037 25.9554 10.1037 25.625V5.625Z" fill="#161D27"/>
<path d="M61.015 49.3087L55.4162 34.3088C55.149 33.5957 54.6709 32.9809 54.0457 32.5462C53.4205 32.1114 52.6778 31.8773 51.9163 31.875H10.5837C9.82225 31.8773 9.07949 32.1114 8.45428 32.5462C7.82907 32.9809 7.35103 33.5957 7.08375 34.3088L1.485 49.3087C1.27267 49.8752 1.20052 50.4846 1.27471 51.0849C1.3489 51.6853 1.56723 52.2588 1.91107 52.7565C2.25491 53.2542 2.71405 53.6613 3.24931 53.9432C3.78458 54.225 4.38007 54.3732 4.985 54.375H57.52C58.1245 54.3724 58.7194 54.2236 59.254 53.9414C59.7886 53.6593 60.2471 53.252 60.5904 52.7545C60.9336 52.2569 61.1515 51.6837 61.2254 51.0837C61.2994 50.4837 61.2272 49.8748 61.015 49.3087ZM22.95 51.875L24.4688 46.5325C24.5429 46.2721 24.6997 46.0428 24.9154 45.8791C25.1312 45.7155 25.3942 45.6263 25.665 45.625H36.84C37.111 45.626 37.3743 45.7151 37.5903 45.8787C37.8063 46.0424 37.9632 46.2719 38.0375 46.5325L39.5563 51.875H22.95ZM57.52 51.875H42.145L40.43 45.845C40.2069 45.064 39.7363 44.3765 39.0888 43.886C38.4414 43.3955 37.6522 43.1284 36.84 43.125H25.665C24.853 43.1287 24.0641 43.3959 23.4169 43.8864C22.7697 44.3769 22.2993 45.0642 22.0762 45.845L20.3612 51.875H4.985C4.7835 51.8741 4.5852 51.8245 4.40699 51.7305C4.22879 51.6364 4.07597 51.5007 3.96155 51.3348C3.84712 51.169 3.77449 50.9779 3.74985 50.7779C3.7252 50.5779 3.74927 50.3749 3.82 50.1862L9.41875 35.1863C9.50774 34.9488 9.66683 34.7441 9.87491 34.5992C10.083 34.4543 10.3302 34.3761 10.5837 34.375H51.9212C52.1748 34.3761 52.422 34.4543 52.6301 34.5992C52.8382 34.7441 52.9973 34.9488 53.0863 35.1863L58.685 50.1862C58.7557 50.3749 58.7798 50.5779 58.7551 50.7779C58.7305 50.9779 58.6579 51.169 58.5435 51.3348C58.429 51.5007 58.2762 51.6364 58.098 51.7305C57.9198 51.8245 57.7215 51.8741 57.52 51.875Z" fill="#161D27"/>
<path d="M29 22.7202L36.825 18.6839C37.3922 18.3992 37.8691 17.9623 38.2023 17.4222C38.5356 16.882 38.7121 16.2599 38.7121 15.6252C38.7121 14.9905 38.5356 14.3683 38.2023 13.8282C37.8691 13.288 37.3922 12.8512 36.825 12.5664L29 8.53017C28.4648 8.24605 27.8658 8.10364 27.26 8.11653C26.6541 8.12941 26.0617 8.29714 25.5391 8.60376C25.0164 8.91038 24.5809 9.34568 24.2741 9.86821C23.9673 10.3907 23.7994 10.9831 23.7862 11.5889V19.6614C23.7994 20.2672 23.9673 20.8596 24.2741 21.3821C24.5809 21.9047 25.0164 22.34 25.5391 22.6466C26.0617 22.9532 26.6541 23.1209 27.26 23.1338C27.8658 23.1467 28.4648 23.0043 29 22.7202ZM26.2737 11.5952C26.2873 11.4157 26.3461 11.2427 26.4447 11.0921C26.5432 10.9415 26.6782 10.8182 26.8372 10.7339C26.9961 10.6496 27.1739 10.6068 27.3538 10.6097C27.5337 10.6125 27.71 10.6608 27.8662 10.7502L35.6912 14.7864C35.8516 14.8589 35.9877 14.9761 36.0831 15.124C36.1785 15.2719 36.2293 15.4442 36.2293 15.6202C36.2293 15.7962 36.1785 15.9684 36.0831 16.1163C35.9877 16.2642 35.8516 16.3814 35.6912 16.4539L27.8662 20.5002C27.7109 20.5887 27.5358 20.6367 27.3571 20.6398C27.1783 20.6429 27.0016 20.601 26.8433 20.518C26.685 20.435 26.55 20.3135 26.451 20.1647C26.3519 20.0159 26.2918 19.8445 26.2762 19.6664L26.2737 11.5952Z" fill="#161D27"/>
</svg>
