<svg width="80" height="80" viewBox="0 0 80 80" fill="none" xmlns="http://www.w3.org/2000/svg">
<g opacity="0.4">
<path d="M38.75 38.125C44.9632 38.125 50 33.0882 50 26.875C50 20.6618 44.9632 15.625 38.75 15.625C32.5368 15.625 27.5 20.6618 27.5 26.875C27.5 33.0882 32.5368 38.125 38.75 38.125Z" fill="#FD6727"/>
<path d="M66.25 38.125C72.4632 38.125 77.5 33.0882 77.5 26.875C77.5 20.6618 72.4632 15.625 66.25 15.625C60.0368 15.625 55 20.6618 55 26.875C55 33.0882 60.0368 38.125 66.25 38.125Z" fill="#FD6727"/>
<path d="M74.935 40.6252H57.56C57.0294 40.6203 56.5037 40.7272 56.0171 40.939C55.5306 41.1509 55.0941 41.4628 54.7362 41.8546C54.3783 42.2464 54.1069 42.7091 53.9398 43.2128C53.7727 43.7164 53.7135 44.2496 53.7662 44.7777L57.0637 74.7777C57.1715 75.7062 57.619 76.5619 58.3202 77.18C59.0214 77.7981 59.9266 78.1348 60.8612 78.1252H71.6375C72.5714 78.1336 73.4755 77.7964 74.1759 77.1784C74.8762 76.5605 75.3233 75.7054 75.4312 74.7777L78.7275 44.7777C78.7802 44.2497 78.7211 43.7166 78.554 43.2131C78.387 42.7095 78.1157 42.2468 77.7579 41.8551C77.4001 41.4633 76.9638 41.1513 76.4775 40.9394C75.9911 40.7275 75.4655 40.6204 74.935 40.6252Z" fill="#FD6727"/>
<path d="M47.435 40.6252H30.06C29.5294 40.6203 29.0037 40.7272 28.5171 40.939C28.0306 41.1509 27.5942 41.4628 27.2362 41.8546C26.8783 42.2464 26.607 42.7091 26.4398 43.2128C26.2727 43.7164 26.2136 44.2496 26.2663 44.7777L29.5638 74.7777C29.6717 75.706 30.1194 76.5616 30.8205 77.1797C31.5217 77.7977 32.4267 78.1345 33.3613 78.1252H44.1375C45.0715 78.1336 45.9756 77.7964 46.6759 77.1784C47.3762 76.5605 47.8233 75.7054 47.9313 74.7777L51.2275 44.7777C51.2802 44.2497 51.2211 43.7166 51.054 43.2131C50.887 42.7095 50.6157 42.2468 50.258 41.8551C49.9002 41.4633 49.4639 41.1513 48.9775 40.9394C48.4911 40.7275 47.9655 40.6204 47.435 40.6252Z" fill="#FD6727"/>
</g>
<path d="M25 41.875C28.9556 41.875 32.8224 40.702 36.1114 38.5044C39.4004 36.3068 41.9638 33.1832 43.4776 29.5287C44.9913 25.8742 45.3874 21.8528 44.6157 17.9732C43.844 14.0936 41.9392 10.5299 39.1421 7.73287C36.3451 4.93582 32.7814 3.03101 28.9018 2.2593C25.0222 1.4876 21.0009 1.88367 17.3463 3.39742C13.6918 4.91117 10.5682 7.47462 8.37061 10.7636C6.17298 14.0526 5 17.9194 5 21.875C5.00629 27.1774 7.11544 32.2608 10.8648 36.0102C14.6142 39.7596 19.6976 41.8687 25 41.875ZM25 4.37501C28.4612 4.37501 31.8446 5.40137 34.7225 7.32429C37.6003 9.24722 39.8434 11.9803 41.1679 15.1781C42.4924 18.3758 42.839 21.8944 42.1637 25.2891C41.4885 28.6838 39.8218 31.802 37.3744 34.2494C34.9269 36.6968 31.8087 38.3635 28.4141 39.0387C25.0194 39.714 21.5007 39.3674 18.303 38.0429C15.1053 36.7184 12.3722 34.4753 10.4493 31.5975C8.52636 28.7196 7.5 25.3362 7.5 21.875C7.50496 17.2352 9.3503 12.7869 12.6311 9.50612C15.9119 6.22531 20.3602 4.37997 25 4.37501Z" fill="#161D27"/>
<path d="M46.1863 48.8751L33.2812 44.5676C32.9037 44.4192 32.4988 44.3536 32.0938 44.3751H17.9062C17.5013 44.3561 17.0969 44.4216 16.7188 44.5676L3.81375 48.8751C3.06818 49.1237 2.41956 49.6003 1.95952 50.2375C1.49949 50.8747 1.2513 51.6404 1.25 52.4263V60.6251C1.25 61.6196 1.64509 62.5735 2.34835 63.2767C3.05161 63.98 4.00544 64.3751 5 64.3751H45C45.9946 64.3751 46.9484 63.98 47.6516 63.2767C48.3549 62.5735 48.75 61.6196 48.75 60.6251V52.4263C48.7487 51.6404 48.5005 50.8747 48.0405 50.2375C47.5804 49.6003 46.9318 49.1237 46.1863 48.8751ZM29.7825 46.8751L25 52.4551L20.2175 46.8751H29.7825ZM3.75 60.6251V52.4263C3.74994 52.1639 3.83249 51.9081 3.98595 51.6951C4.13941 51.4822 4.35599 51.323 4.605 51.2401L17.0975 47.0763L23.75 54.8376V61.8751H5C4.66848 61.8751 4.35054 61.7434 4.11612 61.509C3.8817 61.2745 3.75 60.9566 3.75 60.6251ZM46.25 60.6251C46.25 60.9566 46.1183 61.2745 45.8839 61.509C45.6495 61.7434 45.3315 61.8751 45 61.8751H26.25V54.8376L32.9025 47.0763L45.395 51.2401C45.644 51.323 45.8606 51.4822 46.0141 51.6951C46.1675 51.9081 46.2501 52.1639 46.25 52.4263V60.6251Z" fill="#161D27"/>
</svg>
