<svg width="266" height="9" viewBox="0 0 266 9" fill="none" xmlns="http://www.w3.org/2000/svg">
<path d="M21.4477 7.39517C26.4228 7.45863 32.6726 7.4503 38.9216 7.64514C44.217 7.80749 49.5049 8.28806 54.8002 8.45719C57.9487 8.55379 61.1101 8.19001 64.2607 8.2618C71.9863 8.43484 79.7226 9.29204 87.4224 8.83941C94.7843 8.40505 102.1 8.24552 109.453 8.70275C114.362 9.00919 119.302 8.68841 124.229 8.61806C128.916 8.54916 133.602 8.45316 138.29 8.35041C144.498 8.21965 150.709 8.08214 156.918 7.92203C165.071 7.71223 173.227 7.5589 181.377 7.21585C184.955 7.06282 188.518 6.37909 192.097 6.15384C196.754 5.86105 201.421 5.83931 206.078 5.60523C211.034 5.35465 215.989 4.81508 220.944 4.73155C224.916 4.66707 228.892 5.04287 232.862 5.32152C235.317 5.49505 237.761 5.94612 240.216 6.10386C243.113 6.28754 246.015 6.31553 248.918 6.35481C250.475 6.37693 252.037 6.36525 253.591 6.22253C256.268 5.979 258.782 6.66574 261.342 7.60593C262.17 7.90996 263.599 6.73847 264.4 5.76666C265.452 4.49329 265.052 2.84696 264.005 1.7658C263.502 1.24467 262.666 0.940521 262.011 1.01796C259.62 1.29448 257.24 2.09264 254.857 2.11192C250.344 2.15369 245.831 1.85005 241.323 1.58938C236.816 1.33098 232.286 1.2303 227.818 0.547975C223.552 -0.10468 219.437 1.33055 215.235 1.35823C208.363 1.39926 201.484 1.45825 194.615 1.78152C189.315 2.03222 184.026 2.83618 178.727 3.1343C174.323 3.38065 169.909 3.21147 165.499 3.30647C162.417 3.37327 159.337 3.65004 156.256 3.69878C153.034 3.748 149.808 3.48787 146.593 3.641C143.263 3.80171 139.944 4.53146 136.62 4.59064C131.767 4.67774 126.911 4.32684 122.055 4.27845C118.323 4.25117 114.585 4.47892 110.854 4.43132C106.772 4.37926 102.691 4.00438 98.6115 4.04491C95.7847 4.07207 92.9596 4.6704 90.1313 4.81944C87.3599 4.96244 84.5813 4.8367 81.806 4.86451C80.2301 4.88279 78.6477 5.12674 77.0788 5.00514C73.3909 4.71655 69.7162 4.09626 66.0266 3.93859C62.6513 3.79621 59.2649 4.1097 55.8833 4.18171C54.4973 4.20918 53.113 4.09896 51.7274 4.09709C46.5401 4.09414 41.3539 4.14539 36.1687 4.1086C31.9037 4.08129 27.6415 3.83955 23.3789 3.90258C17.1334 3.99223 10.8858 4.24215 4.63821 4.49432C3.57355 4.53718 2.42233 4.68052 1.49297 5.25788C0.987962 5.57427 0.862772 6.89332 0.565748 7.75643C1.1183 8.02986 1.67133 8.54486 2.22046 8.52929C5.3571 8.44062 8.4934 8.23906 11.6313 8.04882C14.4741 7.87964 17.3174 7.67209 21.4477 7.39517Z" fill="#FD6727"/>
</svg>
