<svg width="22" height="24" viewBox="0 0 22 24" fill="none" xmlns="http://www.w3.org/2000/svg">
<path d="M21.5 2.66683H5.16667C4.54783 2.66683 3.95434 2.91266 3.51675 3.35025C3.07917 3.78783 2.83333 4.38132 2.83333 5.00016C2.83333 5.619 3.07917 6.21249 3.51675 6.65008C3.95434 7.08766 4.54783 7.3335 5.16667 7.3335H21.5V22.5002C21.5 22.8096 21.3771 23.1063 21.1583 23.3251C20.9395 23.5439 20.6428 23.6668 20.3333 23.6668H5.16667C3.92899 23.6668 2.742 23.1752 1.86683 22.3C0.991665 21.4248 0.5 20.2378 0.5 19.0002V5.00016C0.5 3.76249 0.991665 2.5755 1.86683 1.70033C2.742 0.825161 3.92899 0.333496 5.16667 0.333496H20.3333C20.6428 0.333496 20.9395 0.456412 21.1583 0.675205C21.3771 0.893997 21.5 1.19074 21.5 1.50016V2.66683ZM2.83333 19.0002C2.83333 19.619 3.07917 20.2125 3.51675 20.6501C3.95434 21.0877 4.54783 21.3335 5.16667 21.3335H19.1667V9.66683H5.16667C4.34746 9.66814 3.54247 9.45281 2.83333 9.04266V19.0002ZM20.3333 6.16683H5.16667C4.85725 6.16683 4.5605 6.04391 4.34171 5.82512C4.12292 5.60633 4 5.30958 4 5.00016C4 4.69074 4.12292 4.394 4.34171 4.17521C4.5605 3.95641 4.85725 3.8335 5.16667 3.8335H20.3333V6.16683Z" fill="#FD6727"/>
</svg>
